<svg xmlns="http://www.w3.org/2000/svg" viewBox="0 0 1117.19954 746.54018">
<defs><style>.cls-1,.cls-2{fill:#fff;stroke-miterlimit:10;stroke-width:3px;}.cls-1{stroke:#e5e5e5;}.cls-2{stroke:#22b0ed;}</style></defs
><title></title>
<g id="Layer_2" data-name="Layer 2"><g id="Layer_1-2" data-name="Layer 1">
<polygon class="cls-1" points="1031.815 504.884 1004.338 601.013 907.351 625.282 837.839 553.422 865.315 457.294 962.303 433.025 1031.815 504.884"/>
<polygon class="cls-1" points="990.505 336.287 963.029 432.415 866.041 456.684 796.529 384.825 824.006 288.697 920.993 264.428 990.505 336.287"/>
<polygon class="cls-1" points="1115.519 215.357 1088.042 311.486 991.055 335.755 921.543 263.896 949.019 167.767 1046.007 143.498 1115.519 215.357"/>
<polygon class="cls-1" points="947.278 168.442 919.802 264.57 822.814 288.84 753.303 216.98 780.779 120.852 877.767 96.583 947.278 168.442"/>
<polygon class="cls-1" points="781.003 119.709 753.526 215.837 656.539 240.106 587.027 168.247 614.503 72.118 711.491 47.849 781.003 119.709"/>
<polygon class="cls-1" points="614.549 73.525 587.072 169.653 490.085 193.922 420.573 122.063 448.049 25.934 545.037 1.665 614.549 73.525"/>
<polygon class="cls-1" points="488.122 192.176 460.646 288.305 363.658 312.574 294.146 240.715 321.623 144.586 418.61 120.317 488.122 192.176"/>
<polygon class="cls-1" points="320.537 144.658 293.06 240.787 196.073 265.056 126.561 193.197 154.037 97.068 251.025 72.799 320.537 144.658"/>
<polygon class="cls-1" points="362.537 313.658 335.06 409.787 238.073 434.056 168.561 362.197 196.037 266.068 293.025 241.799 362.537 313.658"/>
<polygon class="cls-1" points="195.656 265.459 168.179 361.588 71.192 385.857 1.68 313.997 29.156 217.869 126.144 193.6 195.656 265.459"/>
<polygon class="cls-1" points="237.133 434.964 209.657 531.093 112.67 555.362 43.158 483.503 70.634 387.374 167.622 363.105 237.133 434.964"/>
<polygon class="cls-1" points="278.467 603.891 250.991 700.019 154.003 724.288 84.491 652.429 111.968 556.301 208.955 532.031 278.467 603.891"/>
<polygon class="cls-1" points="404.746 483.672 377.27 579.8 280.283 604.069 210.771 532.21 238.247 436.081 335.235 411.812 404.746 483.672"/>
<polygon class="cls-1" points="572.631 530.849 545.155 626.977 448.167 651.246 378.655 579.387 406.132 483.258 503.119 458.989 572.631 530.849"/>
<polygon class="cls-1" points="740.455 578.167 712.978 674.296 615.991 698.565 546.479 626.706 573.955 530.577 670.943 506.308 740.455 578.167"/>
<polygon class="cls-1" points="907.129 624.477 879.652 720.606 782.665 744.875 713.153 673.016 740.629 576.887 837.617 552.618 907.129 624.477"/>
<polygon class="cls-2 web" points="865.468 457.238 837.992 553.366 741.004 577.635 671.493 505.776 698.969 409.648 795.957 385.379 865.468 457.238"/>
<polygon class="cls-2 seo" points="698.216 409.367 670.74 505.495 573.752 529.764 504.241 457.905 531.717 361.776 628.705 337.507 698.216 409.367"/>
<polygon class="cls-2 design" points="530.952 361.589 503.476 457.717 406.488 481.987 336.977 410.127 364.453 313.999 461.441 289.73 530.952 361.589"/>
<polygon class="cls-2 content" points="655.966 240.66 628.49 336.788 531.502 361.057 461.991 289.198 489.467 193.069 586.455 168.8 655.966 240.66"/>
<polygon class="cls-2 strategy" points="822.822 288.832 795.345 384.961 698.358 409.23 628.846 337.37 656.322 241.242 753.31 216.973 822.822 288.832"/></g>
</g>
</svg>